<?xml version="1.0" standalone="no"?>
<!DOCTYPE svg PUBLIC "-//W3C//DTD SVG 20010904//EN"
 "http://www.w3.org/TR/2001/REC-SVG-20010904/DTD/svg10.dtd">
<svg version="1.0" xmlns="http://www.w3.org/2000/svg"
 width="399.000000pt" height="386.000000pt" viewBox="0 0 399.000000 386.000000"
 preserveAspectRatio="xMidYMid meet">

<g transform="translate(0.000000,386.000000) scale(0.100000,-0.100000)"
fill="#000000" stroke="none">
<path d="M1745 2990 c-401 -323 -422 -339 -462 -339 l-43 -1 0 -435 0 -435
760 0 760 0 0 435 0 435 -34 0 -34 0 -60 178 c-33 97 -65 189 -70 203 l-10 26
-76 -26 c-41 -14 -76 -23 -79 -21 -2 3 -54 76 -116 163 -62 86 -113 157 -114
156 -1 0 -191 -153 -422 -339z m460 40 c26 -38 46 -72 44 -74 -9 -8 -543 -186
-535 -179 4 4 101 83 214 174 128 103 211 163 218 158 6 -5 32 -40 59 -79z
m297 -270 l36 -110 -361 1 c-199 0 -355 3 -347 6 55 21 617 212 625 212 6 1
27 -48 47 -109z m3 -294 c15 -24 47 -56 71 -71 l44 -28 0 -152 0 -153 -45 -26
c-27 -16 -55 -44 -71 -71 l-26 -45 -479 0 -478 0 -15 28 c-16 31 -71 84 -103
101 -22 11 -23 16 -23 165 l0 153 37 24 c21 13 53 45 73 72 l35 47 476 0 476
0 28 -44z"/>
<path d="M1917 2456 c-51 -19 -103 -60 -135 -108 -55 -84 -37 -242 36 -311
167 -157 432 -48 432 178 0 174 -172 298 -333 241z m159 -167 c23 -24 29 -39
29 -75 0 -39 -5 -50 -33 -75 -89 -80 -224 22 -167 127 21 39 47 52 101 53 32
1 46 -5 70 -30z"/>
<path d="M2621 1194 c-24 -30 -24 -34 -12 -67 17 -44 92 -55 134 -19 25 22 22
77 -5 96 -36 26 -93 21 -117 -10z"/>
<path d="M2966 1199 c-60 -10 -103 -48 -119 -106 -8 -30 -16 -43 -29 -43 -15
0 -18 -9 -18 -60 0 -53 2 -60 20 -60 19 0 20 -7 20 -135 l0 -135 70 0 70 0 0
134 0 135 28 3 c26 3 27 5 27 58 0 53 -1 55 -27 58 -16 2 -28 7 -28 11 0 13
24 31 42 31 17 0 19 7 16 57 -2 31 -7 57 -13 58 -5 2 -32 -1 -59 -6z"/>
<path d="M2160 915 l0 -255 70 0 70 0 0 78 0 77 51 -77 52 -78 84 0 84 0 -75
92 c-42 51 -76 95 -76 98 0 3 32 45 70 94 39 49 70 93 70 98 0 4 -33 8 -74 8
l-75 0 -55 -77 -56 -77 0 137 0 137 -70 0 -70 0 0 -255z"/>
<path d="M502 1098 l3 -53 63 -3 62 -3 0 -189 0 -190 70 0 70 0 0 190 0 190
65 0 65 0 0 55 0 55 -201 0 -200 0 3 -52z"/>
<path d="M950 855 l0 -195 70 0 70 0 0 99 c0 120 11 140 83 148 l47 6 0 70 0
70 -32 -7 c-17 -3 -46 -17 -64 -31 l-33 -25 -3 27 c-3 27 -5 28 -70 31 l-68 3
0 -196z"/>
<path d="M1334 1031 c-72 -44 -107 -138 -85 -234 28 -127 155 -187 245 -116
l26 20 0 -20 c0 -19 6 -21 70 -21 l70 0 -2 193 -3 192 -63 3 c-57 3 -64 1 -69
-18 l-5 -20 -33 20 c-41 26 -110 26 -151 1z m170 -123 c37 -52 8 -138 -47
-138 -71 0 -103 112 -43 152 24 16 75 8 90 -14z"/>
<path d="M1830 1034 c-74 -32 -110 -92 -110 -181 0 -106 59 -183 150 -198 84
-14 162 17 207 84 37 55 32 61 -46 61 -49 0 -72 -4 -81 -15 -18 -22 -67 -19
-80 4 -18 34 -12 109 10 131 11 11 24 20 29 20 4 0 20 -9 34 -20 19 -15 40
-20 91 -20 77 0 83 11 41 72 -47 69 -161 98 -245 62z"/>
<path d="M2617 1044 c-4 -4 -7 -92 -7 -196 l0 -188 70 0 70 0 -2 193 -3 192
-60 3 c-34 2 -64 0 -68 -4z"/>
<path d="M3050 1044 c0 -3 34 -84 75 -181 41 -96 75 -181 75 -189 0 -8 -18
-54 -40 -103 -22 -49 -40 -92 -40 -95 0 -4 32 -6 72 -4 l72 3 118 275 c65 151
118 280 118 287 0 9 -19 13 -69 13 l-69 0 -38 -105 c-21 -58 -41 -105 -44
-105 -3 0 -21 42 -39 93 -18 50 -38 98 -43 105 -10 12 -148 18 -148 6z"/>
</g>
</svg>
